<?xml version="1.0" ?><svg id="Layer_1" style="enable-background:new 0 0 128 128;" version="1.1" viewBox="0 0 128 128" xml:space="preserve" xmlns="http://www.w3.org/2000/svg" xmlns:xlink="http://www.w3.org/1999/xlink"><style type="text/css">
	.st0{fill:#60646B;}
</style><path class="st0" d="M116.4,100.9V32.4L79.8,21.8v79.1h-2.7c0-17.8-0.1-35.7-0.1-53.5c-8.6,0.1-17.9,0.1-26.5,0.2V101h-2.3V32.4l0,0  H11.3l0,0v68.5H6v5.3h116v-5.3H116.4z M100.3,37.4h10.5v11.7h-10.5V37.4z M100.3,52.3h10.5V64h-10.5V52.3z M100.3,68.3h10.5V80  h-10.5V68.3z M100.3,84.5h10.5v11.7h-10.5V84.5z M84.1,37.4h10.5v11.7H84.1V37.4z M84.1,52.3h10.5V64H84.1V52.3z M84.1,68.3h10.5V80  H84.1V68.3z M84.1,84.5h10.5v11.7H84.1V84.5z M32.4,38h10.5v10.5H32.4V38z M32.4,53.5h10.5V64H32.4V53.5z M32.4,69.3h10.5v10.5H32.4  V69.3z M32.4,85.1h10.5v10.5H32.4V85.1z M16.5,38H27v10.5H16.5V38z M16.5,53.5H27V64H16.5V53.5z M16.5,69.3H27v10.5H16.5V69.3z   M16.5,85.1H27v10.5H16.5V85.1z"/></svg>