<?xml version="1.0" ?><svg id="Layer_1" style="enable-background:new 0 0 128 128;" version="1.1" viewBox="0 0 128 128" xml:space="preserve" xmlns="http://www.w3.org/2000/svg" xmlns:xlink="http://www.w3.org/1999/xlink"><style type="text/css">
	.st0{fill:#60646B;}
</style><g><polygon class="st0" points="67.9,9.9 112.5,24.7 113.8,20.9 67.9,5.6 22,20.8 23.2,24.7  "/><polygon class="st0" points="123.1,45.6 123.1,37.2 73,22.4 72.9,22.9 72.9,22.9 72.9,22.9 72.7,23.4 72.9,23.4 72.9,116.5    68.7,116.5 68.7,12.1 57.8,15.9 57.8,116.5 53.4,116.5 53.4,17.1 42.6,21.1 42.5,116.5 38.5,116.5 38.5,22.1 27.6,25.8 27.6,116.5    23.6,116.5 23.6,26.7 12.7,30.1 12.6,122.4 123.1,122.4 123.1,116.5 118.1,116.5 118.1,44.5  "/></g></svg>